<svg id="Layer_1" xmlns="http://www.w3.org/2000/svg" viewBox="0 0 23 23"><style>.st0{fill:#1a2e3b}.st1{fill:#00adef}</style><title>icons-ui-set copy</title><path class="st0" d="M17.6 17.5c-.6-.1-1-.6-1-1.2 0-.3.2-.6.5-.8l1.5-.3c1.7-.6 2.6-2.5 2-4.1-.5-1.3-1.7-2.1-3-2.1-.2-.3-.3-.7-.4-1.1-.4-1-1-1.9-1.8-2.6C12.8 3 9 3.4 6.8 6c-.5.6-.9 1.4-1.2 2.2-.2.7-.1.6-.8.7-1.8.4-2.9 2.1-2.6 3.8.3 1.3 1.3 2.3 2.6 2.6.5 0 1 .1 1.4.4.4.5.3 1.1-.2 1.5-.8.6-2.3.1-3.1-.3C.2 15.6-.9 12.3.5 9.7c.5-1 1.3-1.8 2.2-2.3.5-.1.9-.4 1.2-.7C5.7 2.5 10.5.6 14.7 2.3c1.7.7 3.1 2 4 3.6.1.5.4.9.8 1.2.4.2.9.4 1.3.7 2.4 1.7 3 5.1 1.3 7.5-1.1 1.3-2.7 2.2-4.5 2.2"/><path class="st1" d="M7.5 14.9l3.2-3.6c.4-.4 1.1-.5 1.5-.1l.1.1 1.7 1.9c.2.2 1.2 1.7 1.6 1.7.4.5.3 1.1-.1 1.5-.4.4-1.1.3-1.5-.1l-1.4-1.5v5.6c0 .6-.5 1.1-1.1 1.1-.6 0-1.1-.5-1.1-1.1v-5.5c-.5.7-1.1 1.3-1.8 1.8-.6.2-1.2-.1-1.4-.7 0-.4 0-.8.3-1.1z"/></svg>